<svg  viewBox="0 0 1600 800" fill="none" xmlns="http://www.w3.org/2000/svg">
    <g clip-path="url(#clip0_102_2)">
    <path d="M1026 0C1026 0 1027.54 23.426 1031.68 32.323C1036.22 42.089 1044.39 52.499 1053.27 59.655C1062.26 66.909 1073.8 71.853 1085.43 75.388C1097.8 79.151 1108.9 81.334 1125.63 80.865C1153.75 80.076 1202.45 71.758 1238.19 59.041C1274.21 46.223 1348 -1.5 1348 -1.5"  stroke-width="4" stroke-linecap="round"/>
    <path d="M859.5 -5C859.5 -5 883.186 64.917 896.333 88.889C907.18 108.666 917.667 124.947 932.663 139.389C948.29 154.437 968.654 168.581 988.945 176.742C1008.9 184.769 1030.58 187.729 1053.27 188.37C1078.52 189.085 1105.45 184.849 1133.67 178.487C1166.58 171.069 1200.48 158.668 1238.19 143.719C1284.89 125.207 1344.09 97.294 1391.47 72.727C1434.24 50.554 1519 -1.5 1519 -1.5"  stroke-width="2" stroke-linecap="round"/>
    <path d="M1596 429.896C1596 429.896 1572.15 483.196 1560.22 501.01C1552.04 513.237 1545.73 521.245 1535.68 529.367C1524.56 538.347 1510.91 545.534 1495.48 551.427C1476.96 558.5 1460.81 562.5 1431.16 566.34C1367.35 574.601 1235.88 577.273 1125.63 575.411C995.325 573.21 764.275 562.821 699.497 548.331C679.48 543.854 670.845 544.051 661.58 533.333C648.358 518.04 653.811 471.252 642.523 452.525C634.517 439.243 627.716 433.039 611.055 425.067C574.221 407.444 471.336 402.734 410.05 389.518C357.627 378.213 310.351 365.601 265.327 352.604C225.258 341.037 192.271 331.099 152.764 316.259C107.168 299.131 8.04004 253.985 8.04004 253.985"  stroke-width="2" stroke-linecap="round" stroke-dasharray="8 12"/>
    <path d="M681.5 -4C681.5 -4 725.41 26.285 737.788 40.404C750.205 54.569 758.584 69.781 768.345 88.889C780.965 113.594 793.651 146.584 804.076 177.778C815.185 211.018 818.475 262.173 832.343 282.828C840.226 294.569 849.48 299.417 860.302 304.131C871.959 309.209 883.257 310.412 900.503 311.053C931.2 312.194 985.365 306.76 1029.15 298.64C1076.34 289.886 1133.12 273.103 1173.87 258.494C1205.06 247.313 1221.96 238.874 1254.27 222.795C1306.11 196.998 1391.03 143.81 1452.37 113.131C1503.51 87.549 1604 46 1604 46"  stroke-width="4" stroke-linecap="round"/>
    <path d="M1605.5 295.5C1605.5 295.5 1528.31 331.699 1497.12 355.556C1462.92 381.704 1431.92 430.964 1400.9 452.525C1378.27 468.255 1358.33 475.393 1334.67 482.531C1309.64 490.085 1282.39 493.467 1254.27 495.569C1223.67 497.856 1187.81 498.093 1157.79 494.455C1130.85 491.19 1100.23 486.171 1082.13 476.768C1069.73 470.331 1057.63 461.509 1054.95 452.525C1052.72 445.067 1056.59 435.644 1061.45 428.283C1067.53 419.076 1076.11 413.476 1092.34 404.04C1134.93 379.275 1273.66 342.938 1342.71 301.745C1399.44 267.904 1437.65 215.133 1483.75 185.859C1521.78 161.702 1602.5 128.5 1602.5 128.5"  stroke-width="2" stroke-linecap="round"/>
    <path d="M396.5 -2C396.5 -2 526.408 46.792 562.814 65.592C584.229 76.65 598.691 85.175 611.231 96.97C621.697 106.814 629.628 117.982 635.11 129.293C640.115 139.62 643.293 150.774 643.929 161.616C644.557 172.325 642.735 184.29 639.07 193.939C635.624 203.016 630.373 210.687 623.303 218.182C614.898 227.092 603.159 235.566 590.395 242.424C575.579 250.384 556.535 256.85 538.693 261.36C520.561 265.944 501.849 268.387 482.412 269.528C461.737 270.742 440.601 270.437 418.09 267.803C392.656 264.827 369.023 259.946 337.688 250.988C291.331 237.735 225.355 205.58 168.844 189.216C114.111 173.366 -6.5 152.5 -6.5 152.5"  stroke-width="2" stroke-linecap="round"/>
    </g>
    <defs>
    <clipPath id="clip0_102_2">
    <rect width="1600" height="800" fill="white"/>
    </clipPath>
    </defs>
    </svg>
