<svg width="210" height="210" viewBox="0 0 210 210" fill="none" xmlns="http://www.w3.org/2000/svg">
<path d="M161.6 34C161.067 39.0667 160.667 44 160.4 48.8C160.267 53.4667 160.2 57.0667 160.2 59.6C160.2 62.8 160.267 65.8 160.4 68.6C160.533 71.4 160.667 73.8667 160.8 76H156.2C155.267 66.6667 154 59.3333 152.4 54C150.8 48.5333 148 44.6 144 42.2C140 39.8 133.8 38.6 125.4 38.6H114.6V152.4C114.6 157.733 115.067 161.733 116 164.4C117.067 167.067 119.067 168.867 122 169.8C124.933 170.733 129.2 171.333 134.8 171.6V175.6C131.333 175.333 126.933 175.2 121.6 175.2C116.267 175.067 110.867 175 105.4 175C99.4 175 93.7333 175.067 88.4 175.2C83.2 175.2 79 175.333 75.8 175.6V171.6C81.4 171.333 85.6667 170.733 88.6 169.8C91.5333 168.867 93.4667 167.067 94.4 164.4C95.4667 161.733 96 157.733 96 152.4V38.6H85.2C76.9333 38.6 70.7333 39.8 66.6 42.2C62.6 44.6 59.8 48.5333 58.2 54C56.6 59.3333 55.3333 66.6667 54.4 76H49.8C50.0667 73.8667 50.2 71.4 50.2 68.6C50.3333 65.8 50.4 62.8 50.4 59.6C50.4 57.0667 50.2667 53.4667 50 48.8C49.8667 44 49.5333 39.0667 49 34C54.6 34.1333 60.6667 34.2667 67.2 34.4C73.8667 34.5333 80.5333 34.6 87.2 34.6C93.8667 34.6 99.9333 34.6 105.4 34.6C110.867 34.6 116.867 34.6 123.4 34.6C130.067 34.6 136.733 34.5333 143.4 34.4C150.067 34.2667 156.133 34.1333 161.6 34Z" fill="black"/>
</svg>
